<?xml version="1.0" encoding="iso-8859-1"?>
<!-- Generator: Adobe Illustrator 19.0.0, SVG Export Plug-In . SVG Version: 6.00 Build 0)  -->
<svg xmlns="http://www.w3.org/2000/svg" xmlns:xlink="http://www.w3.org/1999/xlink" version="1.1" id="Layer_1" x="0px" y="0px" viewBox="0 0 511.996 511.996" style="enable-background:new 0 0 511.996 511.996;" xml:space="preserve" width="512px" height="512px">
<g>
	<g>
		<g>
			<path d="M415.993,0H95.996C66.59,0,42.66,23.922,42.66,53.328v405.34c0,29.406,23.93,53.328,53.336,53.328h319.997     c29.405,0,53.343-23.922,53.343-53.328V53.328C469.336,23.922,445.398,0,415.993,0z M447.992,458.667     c0,17.642-14.343,32.001-31.999,32.001H95.996c-17.648,0-32-14.359-32-32v-0.031c3.281,2.469,6.859,4.562,10.664,6.234v4.453     c0,5.891,4.781,10.672,10.672,10.672s10.664-4.781,10.664-10.672h21.335c0,5.891,4.773,10.672,10.664,10.672     s10.664-4.781,10.664-10.672h21.336c0,5.891,4.773,10.672,10.664,10.672c5.898,0,10.672-4.781,10.672-10.672h21.327     c0,5.891,4.781,10.672,10.672,10.672s10.664-4.781,10.664-10.672h21.336c0,5.891,4.773,10.672,10.664,10.672     c5.891,0,10.664-4.781,10.664-10.672h21.336c0,5.891,4.78,10.672,10.655,10.672c5.906,0,10.688-4.781,10.688-10.672h21.312     c0,5.891,4.781,10.672,10.688,10.672c5.875,0,10.656-4.781,10.656-10.672h21.344c0,5.891,4.766,10.672,10.656,10.672     s10.656-4.781,10.656-10.672h21.344c0,5.891,4.781,10.672,10.656,10.672c5.906,0,10.687-4.781,10.687-10.672v-4.469     c3.797-1.656,7.375-3.75,10.656-6.219V458.667z M447.992,415.996c0,17.641-14.343,32-31.999,32H95.996c-17.648,0-32-14.359-32-32     V53.328c0-17.641,14.352-32,32-32h319.997c17.656,0,31.999,14.359,31.999,32V415.996z" fill="#FFFFFF"/>
			<path d="M351.901,72.343c-28.344-19.281-61.5-29.469-95.905-29.469c-34.406,0-67.562,10.188-95.897,29.469     c-27.648,18.812-49.016,45.046-61.789,75.827c-1.086,2.609-1.086,5.562-0.008,8.172c1.084,2.61,3.162,4.688,5.771,5.782     l59.141,24.484c5.445,2.25,11.68-0.328,13.938-5.766c4.289-10.328,10.43-19.484,17.944-27.141c0.188-0.156,0.383-0.328,0.562-0.5     c0.211-0.219,0.406-0.438,0.594-0.656c7.758-7.609,16.906-13.656,26.938-17.828c0.047-0.016,0.094-0.031,0.141-0.047     c0.039-0.016,0.07-0.031,0.109-0.047c10.117-4.156,21.133-6.422,32.555-6.422c11.422,0,22.438,2.266,32.562,6.422     c0.031,0.016,0.062,0.031,0.094,0.047c0.047,0.016,0.094,0.031,0.141,0.047c10.03,4.172,19.171,10.203,26.921,17.812     c0.203,0.234,0.406,0.453,0.625,0.672c0.172,0.188,0.375,0.344,0.562,0.516c7.5,7.656,13.656,16.797,17.938,27.125     c1.703,4.109,5.672,6.578,9.859,6.578c1.359,0,2.734-0.25,4.078-0.812l59.141-24.5c2.609-1.078,4.688-3.156,5.766-5.766     c1.094-2.625,1.094-5.562,0-8.172C400.901,117.373,379.541,91.155,351.901,72.343z M349.962,163.03     c-3.25-6.094-7.078-11.781-11.344-17.031l1.844-1.859c4.172-4.156,4.172-10.922,0-15.078c-4.156-4.172-10.906-4.172-15.078,0     l-1.859,1.844c-5.297-4.328-11-8.156-17.047-11.391l1.016-2.422c2.25-5.438-0.344-11.672-5.781-13.938     c-5.438-2.25-11.688,0.328-13.937,5.781l-1.016,2.438c-6.484-1.938-13.203-3.297-20.102-3.969v-2.672     c0-5.891-4.773-10.671-10.664-10.671c-5.891,0-10.664,4.78-10.664,10.671v2.672c-6.891,0.672-13.609,2.031-20.109,3.969     l-1.008-2.438c-2.258-5.453-8.492-8.031-13.938-5.781c-5.445,2.266-8.031,8.5-5.773,13.938l1,2.422     c-6.031,3.25-11.742,7.062-17.046,11.391l-1.852-1.844c-4.164-4.172-10.922-4.172-15.086,0c-4.164,4.156-4.164,10.922,0,15.078     l1.859,1.859c-4.273,5.25-8.094,10.938-11.359,17.031l-39.57-16.391c11.406-22.749,28.406-42.203,49.649-56.655     c21.843-14.859,46.968-23.547,73.233-25.406v10.094c0,5.891,4.773,10.656,10.664,10.656c5.891,0,10.664-4.766,10.664-10.656     V64.578c26.272,1.859,51.397,10.547,73.241,25.406c21.234,14.452,38.234,33.89,49.641,56.655L349.962,163.03z" fill="#FFFFFF"/>
			<path d="M384.181,383.996H128.175c-5.891,0-10.672,4.781-10.672,10.672s4.781,10.656,10.672,10.656h256.006     c5.875,0,10.656-4.766,10.656-10.656S390.056,383.996,384.181,383.996z" fill="#FFFFFF"/>
			<path d="M341.337,362.668c5.875,0,10.656-4.781,10.656-10.672s-4.781-10.672-10.656-10.672H171.019     c-5.891,0-10.664,4.781-10.664,10.672s4.773,10.672,10.664,10.672H341.337z" fill="#FFFFFF"/>
		</g>
	</g>
</g>
<g>
</g>
<g>
</g>
<g>
</g>
<g>
</g>
<g>
</g>
<g>
</g>
<g>
</g>
<g>
</g>
<g>
</g>
<g>
</g>
<g>
</g>
<g>
</g>
<g>
</g>
<g>
</g>
<g>
</g>
</svg>
