<?xml version="1.0" encoding="iso-8859-1"?>
<!-- Generator: Adobe Illustrator 16.0.0, SVG Export Plug-In . SVG Version: 6.00 Build 0)  -->
<!DOCTYPE svg PUBLIC "-//W3C//DTD SVG 1.1//EN" "http://www.w3.org/Graphics/SVG/1.1/DTD/svg11.dtd">
<svg xmlns="http://www.w3.org/2000/svg" xmlns:xlink="http://www.w3.org/1999/xlink" version="1.1" id="Capa_1" x="0px" y="0px" width="512px" height="512px" viewBox="0 0 487.633 487.633" style="enable-background:new 0 0 487.633 487.633;" xml:space="preserve">
<g>
	<path d="M474.381,119.249h-219.49l45.895-26.492c6.34-3.656,8.51-11.76,4.852-18.101c-3.656-6.338-11.764-8.518-18.102-4.85   l-88.719,51.213c-4.099,2.365-6.625,6.738-6.625,11.475c0,4.733,2.526,9.107,6.625,11.476l88.719,51.225   c2.088,1.206,4.363,1.779,6.613,1.779c4.58,0,9.035-2.378,11.486-6.629c3.658-6.338,1.488-14.442-4.85-18.101L254.9,145.752h206.23   v247.354H26.502V145.751h96.729c7.317,0,13.251-5.933,13.251-13.251s-5.934-13.251-13.251-13.251H13.251   C5.933,119.249,0,125.182,0,132.5v273.856c0,7.318,5.933,13.252,13.251,13.252h461.132c7.316,0,13.25-5.934,13.25-13.252V132.5   C487.633,125.182,481.699,119.249,474.381,119.249z" fill="#FFFFFF"/>
</g>
<g>
</g>
<g>
</g>
<g>
</g>
<g>
</g>
<g>
</g>
<g>
</g>
<g>
</g>
<g>
</g>
<g>
</g>
<g>
</g>
<g>
</g>
<g>
</g>
<g>
</g>
<g>
</g>
<g>
</g>
</svg>
